<mxfile host="Electron" agent="Mozilla/5.0 (Windows NT 10.0; Win64; x64) AppleWebKit/537.36 (KHTML, like Gecko) draw.io/28.1.2 Chrome/138.0.7204.243 Electron/37.4.0 Safari/537.36" version="28.1.2">
  <diagram name="Page-1" id="DferFH-HtRWJZ9DOPJpn">
    <mxGraphModel dx="1722" dy="1001" grid="1" gridSize="10" guides="1" tooltips="1" connect="1" arrows="1" fold="1" page="1" pageScale="1" pageWidth="1169" pageHeight="827" math="0" shadow="0">
      <root>
        <mxCell id="0" />
        <mxCell id="1" parent="0" />
        <mxCell id="VYLA8M3CFdyxUnZ186hN-71" value="" style="shape=table;startSize=0;container=1;collapsible=0;childLayout=tableLayout;strokeColor=default;strokeWidth=1;rowLines=1;columnLines=1;top=0;" vertex="1" parent="1">
          <mxGeometry x="119" y="380" width="720" height="80" as="geometry" />
        </mxCell>
        <mxCell id="VYLA8M3CFdyxUnZ186hN-72" value="" style="shape=tableRow;horizontal=0;startSize=0;swimlaneHead=0;swimlaneBody=0;strokeColor=inherit;top=0;left=0;bottom=0;right=0;collapsible=0;dropTarget=0;fillColor=none;points=[[0,0.5],[1,0.5]];portConstraint=eastwest;" vertex="1" parent="VYLA8M3CFdyxUnZ186hN-71">
          <mxGeometry width="720" height="40" as="geometry" />
        </mxCell>
        <mxCell id="VYLA8M3CFdyxUnZ186hN-73" value="&lt;font face=&quot;Lucida Console&quot; style=&quot;font-size: 20px;&quot;&gt;x&lt;/font&gt;" style="shape=partialRectangle;html=1;whiteSpace=wrap;connectable=0;strokeColor=inherit;overflow=hidden;fillColor=none;top=1;left=1;bottom=0;right=1;pointerEvents=1;rowspan=1;colspan=4;strokeWidth=4;" vertex="1" parent="VYLA8M3CFdyxUnZ186hN-72">
          <mxGeometry width="240" height="40" as="geometry">
            <mxRectangle width="60" height="40" as="alternateBounds" />
          </mxGeometry>
        </mxCell>
        <mxCell id="VYLA8M3CFdyxUnZ186hN-74" value="" style="shape=partialRectangle;html=1;whiteSpace=wrap;connectable=0;strokeColor=inherit;overflow=hidden;fillColor=none;top=0;left=0;bottom=0;right=0;pointerEvents=1;" vertex="1" visible="0" parent="VYLA8M3CFdyxUnZ186hN-72">
          <mxGeometry x="60" width="60" height="40" as="geometry">
            <mxRectangle width="60" height="40" as="alternateBounds" />
          </mxGeometry>
        </mxCell>
        <mxCell id="VYLA8M3CFdyxUnZ186hN-75" value="" style="shape=partialRectangle;html=1;whiteSpace=wrap;connectable=0;strokeColor=inherit;overflow=hidden;fillColor=none;top=0;left=0;bottom=0;right=0;pointerEvents=1;" vertex="1" visible="0" parent="VYLA8M3CFdyxUnZ186hN-72">
          <mxGeometry x="120" width="61" height="40" as="geometry">
            <mxRectangle width="61" height="40" as="alternateBounds" />
          </mxGeometry>
        </mxCell>
        <mxCell id="VYLA8M3CFdyxUnZ186hN-76" value="" style="shape=partialRectangle;html=1;whiteSpace=wrap;connectable=0;strokeColor=inherit;overflow=hidden;fillColor=none;top=0;left=0;bottom=0;right=0;pointerEvents=1;" vertex="1" visible="0" parent="VYLA8M3CFdyxUnZ186hN-72">
          <mxGeometry x="181" width="59" height="40" as="geometry">
            <mxRectangle width="59" height="40" as="alternateBounds" />
          </mxGeometry>
        </mxCell>
        <mxCell id="VYLA8M3CFdyxUnZ186hN-77" value="&lt;font face=&quot;Lucida Console&quot; style=&quot;font-size: 20px;&quot;&gt;x_ptr&lt;/font&gt;" style="shape=partialRectangle;html=1;whiteSpace=wrap;connectable=0;strokeColor=inherit;overflow=hidden;fillColor=none;top=1;left=1;bottom=0;right=1;pointerEvents=1;rowspan=1;colspan=8;strokeWidth=4;" vertex="1" parent="VYLA8M3CFdyxUnZ186hN-72">
          <mxGeometry x="240" width="480" height="40" as="geometry">
            <mxRectangle width="60" height="40" as="alternateBounds" />
          </mxGeometry>
        </mxCell>
        <mxCell id="VYLA8M3CFdyxUnZ186hN-78" value="" style="shape=partialRectangle;html=1;whiteSpace=wrap;connectable=0;strokeColor=inherit;overflow=hidden;fillColor=none;top=0;left=0;bottom=0;right=0;pointerEvents=1;" vertex="1" visible="0" parent="VYLA8M3CFdyxUnZ186hN-72">
          <mxGeometry x="300" width="60" height="40" as="geometry">
            <mxRectangle width="60" height="40" as="alternateBounds" />
          </mxGeometry>
        </mxCell>
        <mxCell id="VYLA8M3CFdyxUnZ186hN-79" value="" style="shape=partialRectangle;html=1;whiteSpace=wrap;connectable=0;strokeColor=inherit;overflow=hidden;fillColor=none;top=0;left=0;bottom=0;right=0;pointerEvents=1;" vertex="1" visible="0" parent="VYLA8M3CFdyxUnZ186hN-72">
          <mxGeometry x="360" width="60" height="40" as="geometry">
            <mxRectangle width="60" height="40" as="alternateBounds" />
          </mxGeometry>
        </mxCell>
        <mxCell id="VYLA8M3CFdyxUnZ186hN-80" value="" style="shape=partialRectangle;html=1;whiteSpace=wrap;connectable=0;strokeColor=inherit;overflow=hidden;fillColor=none;top=0;left=0;bottom=0;right=0;pointerEvents=1;" vertex="1" visible="0" parent="VYLA8M3CFdyxUnZ186hN-72">
          <mxGeometry x="420" width="61" height="40" as="geometry">
            <mxRectangle width="61" height="40" as="alternateBounds" />
          </mxGeometry>
        </mxCell>
        <mxCell id="VYLA8M3CFdyxUnZ186hN-81" value="" style="shape=partialRectangle;html=1;whiteSpace=wrap;connectable=0;strokeColor=inherit;overflow=hidden;fillColor=none;top=0;left=0;bottom=0;right=0;pointerEvents=1;" vertex="1" visible="0" parent="VYLA8M3CFdyxUnZ186hN-72">
          <mxGeometry x="481" width="59" height="40" as="geometry">
            <mxRectangle width="59" height="40" as="alternateBounds" />
          </mxGeometry>
        </mxCell>
        <mxCell id="VYLA8M3CFdyxUnZ186hN-82" value="" style="shape=partialRectangle;html=1;whiteSpace=wrap;connectable=0;strokeColor=inherit;overflow=hidden;fillColor=none;top=0;left=0;bottom=0;right=0;pointerEvents=1;" vertex="1" visible="0" parent="VYLA8M3CFdyxUnZ186hN-72">
          <mxGeometry x="540" width="60" height="40" as="geometry">
            <mxRectangle width="60" height="40" as="alternateBounds" />
          </mxGeometry>
        </mxCell>
        <mxCell id="VYLA8M3CFdyxUnZ186hN-83" value="" style="shape=partialRectangle;html=1;whiteSpace=wrap;connectable=0;strokeColor=inherit;overflow=hidden;fillColor=none;top=0;left=0;bottom=0;right=0;pointerEvents=1;" vertex="1" visible="0" parent="VYLA8M3CFdyxUnZ186hN-72">
          <mxGeometry x="600" width="51" height="40" as="geometry">
            <mxRectangle width="51" height="40" as="alternateBounds" />
          </mxGeometry>
        </mxCell>
        <mxCell id="VYLA8M3CFdyxUnZ186hN-84" value="" style="shape=partialRectangle;html=1;whiteSpace=wrap;connectable=0;strokeColor=inherit;overflow=hidden;fillColor=none;top=0;left=0;bottom=0;right=0;pointerEvents=1;" vertex="1" visible="0" parent="VYLA8M3CFdyxUnZ186hN-72">
          <mxGeometry x="651" width="69" height="40" as="geometry">
            <mxRectangle width="69" height="40" as="alternateBounds" />
          </mxGeometry>
        </mxCell>
        <mxCell id="VYLA8M3CFdyxUnZ186hN-85" value="" style="shape=tableRow;horizontal=0;startSize=0;swimlaneHead=0;swimlaneBody=0;strokeColor=inherit;top=0;left=0;bottom=0;right=0;collapsible=0;dropTarget=0;fillColor=none;points=[[0,0.5],[1,0.5]];portConstraint=eastwest;" vertex="1" parent="VYLA8M3CFdyxUnZ186hN-71">
          <mxGeometry y="40" width="720" height="40" as="geometry" />
        </mxCell>
        <mxCell id="VYLA8M3CFdyxUnZ186hN-86" value="" style="shape=partialRectangle;html=1;whiteSpace=wrap;connectable=0;strokeColor=default;overflow=hidden;fillColor=#dae8fc;top=0;left=1;bottom=0;right=1;pointerEvents=1;strokeWidth=4;" vertex="1" parent="VYLA8M3CFdyxUnZ186hN-85">
          <mxGeometry width="60" height="40" as="geometry">
            <mxRectangle width="60" height="40" as="alternateBounds" />
          </mxGeometry>
        </mxCell>
        <mxCell id="VYLA8M3CFdyxUnZ186hN-87" value="" style="shape=partialRectangle;html=1;whiteSpace=wrap;connectable=0;strokeColor=default;overflow=hidden;fillColor=#dae8fc;top=0;left=1;bottom=0;right=1;pointerEvents=1;strokeWidth=4;" vertex="1" parent="VYLA8M3CFdyxUnZ186hN-85">
          <mxGeometry x="60" width="60" height="40" as="geometry">
            <mxRectangle width="60" height="40" as="alternateBounds" />
          </mxGeometry>
        </mxCell>
        <mxCell id="VYLA8M3CFdyxUnZ186hN-88" value="" style="shape=partialRectangle;html=1;whiteSpace=wrap;connectable=0;strokeColor=default;overflow=hidden;fillColor=#dae8fc;top=0;left=1;bottom=0;right=1;pointerEvents=1;strokeWidth=4;" vertex="1" parent="VYLA8M3CFdyxUnZ186hN-85">
          <mxGeometry x="120" width="61" height="40" as="geometry">
            <mxRectangle width="61" height="40" as="alternateBounds" />
          </mxGeometry>
        </mxCell>
        <mxCell id="VYLA8M3CFdyxUnZ186hN-89" value="" style="shape=partialRectangle;html=1;whiteSpace=wrap;connectable=0;strokeColor=default;overflow=hidden;fillColor=#dae8fc;top=0;left=1;bottom=0;right=1;pointerEvents=1;strokeWidth=4;" vertex="1" parent="VYLA8M3CFdyxUnZ186hN-85">
          <mxGeometry x="181" width="59" height="40" as="geometry">
            <mxRectangle width="59" height="40" as="alternateBounds" />
          </mxGeometry>
        </mxCell>
        <mxCell id="VYLA8M3CFdyxUnZ186hN-90" value="" style="shape=partialRectangle;html=1;whiteSpace=wrap;connectable=0;strokeColor=default;overflow=hidden;fillColor=#d5e8d4;top=0;left=1;bottom=0;right=0;pointerEvents=1;strokeWidth=4;" vertex="1" parent="VYLA8M3CFdyxUnZ186hN-85">
          <mxGeometry x="240" width="60" height="40" as="geometry">
            <mxRectangle width="60" height="40" as="alternateBounds" />
          </mxGeometry>
        </mxCell>
        <mxCell id="VYLA8M3CFdyxUnZ186hN-91" value="" style="shape=partialRectangle;html=1;whiteSpace=wrap;connectable=0;strokeColor=default;overflow=hidden;fillColor=#d5e8d4;top=0;left=1;bottom=0;right=0;pointerEvents=1;strokeWidth=4;" vertex="1" parent="VYLA8M3CFdyxUnZ186hN-85">
          <mxGeometry x="300" width="60" height="40" as="geometry">
            <mxRectangle width="60" height="40" as="alternateBounds" />
          </mxGeometry>
        </mxCell>
        <mxCell id="VYLA8M3CFdyxUnZ186hN-92" value="" style="shape=partialRectangle;html=1;whiteSpace=wrap;connectable=0;strokeColor=default;overflow=hidden;fillColor=#d5e8d4;top=0;left=1;bottom=0;right=0;pointerEvents=1;strokeWidth=4;" vertex="1" parent="VYLA8M3CFdyxUnZ186hN-85">
          <mxGeometry x="360" width="60" height="40" as="geometry">
            <mxRectangle width="60" height="40" as="alternateBounds" />
          </mxGeometry>
        </mxCell>
        <mxCell id="VYLA8M3CFdyxUnZ186hN-93" value="" style="shape=partialRectangle;html=1;whiteSpace=wrap;connectable=0;strokeColor=default;overflow=hidden;fillColor=#d5e8d4;top=0;left=1;bottom=0;right=0;pointerEvents=1;strokeWidth=4;" vertex="1" parent="VYLA8M3CFdyxUnZ186hN-85">
          <mxGeometry x="420" width="61" height="40" as="geometry">
            <mxRectangle width="61" height="40" as="alternateBounds" />
          </mxGeometry>
        </mxCell>
        <mxCell id="VYLA8M3CFdyxUnZ186hN-94" value="" style="shape=partialRectangle;html=1;whiteSpace=wrap;connectable=0;strokeColor=default;overflow=hidden;fillColor=#d5e8d4;top=0;left=1;bottom=0;right=0;pointerEvents=1;strokeWidth=4;" vertex="1" parent="VYLA8M3CFdyxUnZ186hN-85">
          <mxGeometry x="481" width="59" height="40" as="geometry">
            <mxRectangle width="59" height="40" as="alternateBounds" />
          </mxGeometry>
        </mxCell>
        <mxCell id="VYLA8M3CFdyxUnZ186hN-95" value="" style="shape=partialRectangle;html=1;whiteSpace=wrap;connectable=0;strokeColor=default;overflow=hidden;fillColor=#d5e8d4;top=0;left=1;bottom=0;right=0;pointerEvents=1;strokeWidth=4;" vertex="1" parent="VYLA8M3CFdyxUnZ186hN-85">
          <mxGeometry x="540" width="60" height="40" as="geometry">
            <mxRectangle width="60" height="40" as="alternateBounds" />
          </mxGeometry>
        </mxCell>
        <mxCell id="VYLA8M3CFdyxUnZ186hN-96" value="" style="shape=partialRectangle;html=1;whiteSpace=wrap;connectable=0;strokeColor=default;overflow=hidden;fillColor=#d5e8d4;top=0;left=1;bottom=0;right=1;pointerEvents=1;strokeWidth=4;" vertex="1" parent="VYLA8M3CFdyxUnZ186hN-85">
          <mxGeometry x="600" width="51" height="40" as="geometry">
            <mxRectangle width="51" height="40" as="alternateBounds" />
          </mxGeometry>
        </mxCell>
        <mxCell id="VYLA8M3CFdyxUnZ186hN-97" value="" style="shape=partialRectangle;html=1;whiteSpace=wrap;connectable=0;strokeColor=default;overflow=hidden;fillColor=#d5e8d4;top=0;left=1;bottom=0;right=1;pointerEvents=1;strokeWidth=4;" vertex="1" parent="VYLA8M3CFdyxUnZ186hN-85">
          <mxGeometry x="651" width="69" height="40" as="geometry">
            <mxRectangle width="69" height="40" as="alternateBounds" />
          </mxGeometry>
        </mxCell>
        <mxCell id="VYLA8M3CFdyxUnZ186hN-98" value="&lt;span style=&quot;color: rgb(0, 0, 0); font-size: 20px; font-style: normal; font-variant-ligatures: normal; font-variant-caps: normal; font-weight: 400; letter-spacing: normal; orphans: 2; text-indent: 0px; text-transform: none; widows: 2; word-spacing: 0px; -webkit-text-stroke-width: 0px; white-space: nowrap; text-decoration-thickness: initial; text-decoration-style: initial; text-decoration-color: initial; float: none; display: inline !important;&quot;&gt;&lt;font style=&quot;&quot; face=&quot;Lucida Console&quot;&gt;main&lt;/font&gt;&lt;/span&gt;" style="text;whiteSpace=wrap;html=1;align=center;fillColor=#e1d5e7;strokeColor=#9673a6;" vertex="1" parent="1">
          <mxGeometry x="400" y="310" width="60" height="50" as="geometry" />
        </mxCell>
        <mxCell id="VYLA8M3CFdyxUnZ186hN-101" value="" style="endArrow=classic;html=1;rounded=0;entryX=0.006;entryY=1.125;entryDx=0;entryDy=0;entryPerimeter=0;strokeWidth=20;" edge="1" parent="1" target="VYLA8M3CFdyxUnZ186hN-85">
          <mxGeometry width="50" height="50" relative="1" as="geometry">
            <mxPoint x="590" y="470" as="sourcePoint" />
            <mxPoint x="120" y="470" as="targetPoint" />
            <Array as="points">
              <mxPoint x="590" y="630" />
              <mxPoint x="120" y="630" />
              <mxPoint x="120" y="550" />
            </Array>
          </mxGeometry>
        </mxCell>
        <mxCell id="VYLA8M3CFdyxUnZ186hN-128" value="&lt;font face=&quot;Lucida Console&quot;&gt;&lt;span style=&quot;font-size: 20px; text-wrap-mode: nowrap;&quot;&gt;5&lt;/span&gt;&lt;/font&gt;" style="text;whiteSpace=wrap;html=1;align=center;" vertex="1" parent="1">
          <mxGeometry x="190" y="470" width="60" height="50" as="geometry" />
        </mxCell>
        <mxCell id="VYLA8M3CFdyxUnZ186hN-129" value="" style="shape=table;startSize=0;container=1;collapsible=0;childLayout=tableLayout;" vertex="1" parent="1">
          <mxGeometry x="680" y="660" width="440" height="80" as="geometry" />
        </mxCell>
        <mxCell id="VYLA8M3CFdyxUnZ186hN-130" value="" style="shape=tableRow;horizontal=0;startSize=0;swimlaneHead=0;swimlaneBody=0;strokeColor=inherit;top=0;left=0;bottom=0;right=0;collapsible=0;dropTarget=0;fillColor=none;points=[[0,0.5],[1,0.5]];portConstraint=eastwest;" vertex="1" parent="VYLA8M3CFdyxUnZ186hN-129">
          <mxGeometry width="440" height="40" as="geometry" />
        </mxCell>
        <mxCell id="VYLA8M3CFdyxUnZ186hN-131" value="&lt;font face=&quot;Lucida Console&quot; style=&quot;font-size: 20px;&quot;&gt;x&lt;/font&gt;" style="shape=partialRectangle;html=1;whiteSpace=wrap;connectable=0;strokeColor=inherit;overflow=hidden;fillColor=none;top=1;left=1;bottom=0;right=1;pointerEvents=1;rowspan=1;colspan=4;strokeWidth=4;" vertex="1" parent="VYLA8M3CFdyxUnZ186hN-130">
          <mxGeometry width="440" height="40" as="geometry">
            <mxRectangle width="109" height="40" as="alternateBounds" />
          </mxGeometry>
        </mxCell>
        <mxCell id="VYLA8M3CFdyxUnZ186hN-132" value="" style="shape=partialRectangle;html=1;whiteSpace=wrap;connectable=0;strokeColor=inherit;overflow=hidden;fillColor=none;top=0;left=0;bottom=0;right=0;pointerEvents=1;" vertex="1" visible="0" parent="VYLA8M3CFdyxUnZ186hN-130">
          <mxGeometry x="109" width="114" height="40" as="geometry">
            <mxRectangle width="114" height="40" as="alternateBounds" />
          </mxGeometry>
        </mxCell>
        <mxCell id="VYLA8M3CFdyxUnZ186hN-133" value="" style="shape=partialRectangle;html=1;whiteSpace=wrap;connectable=0;strokeColor=inherit;overflow=hidden;fillColor=none;top=0;left=0;bottom=0;right=0;pointerEvents=1;" vertex="1" visible="0" parent="VYLA8M3CFdyxUnZ186hN-130">
          <mxGeometry x="223" width="108" height="40" as="geometry">
            <mxRectangle width="108" height="40" as="alternateBounds" />
          </mxGeometry>
        </mxCell>
        <mxCell id="VYLA8M3CFdyxUnZ186hN-134" value="" style="shape=partialRectangle;html=1;whiteSpace=wrap;connectable=0;strokeColor=inherit;overflow=hidden;fillColor=none;top=0;left=0;bottom=0;right=0;pointerEvents=1;" vertex="1" visible="0" parent="VYLA8M3CFdyxUnZ186hN-130">
          <mxGeometry x="331" width="109" height="40" as="geometry">
            <mxRectangle width="109" height="40" as="alternateBounds" />
          </mxGeometry>
        </mxCell>
        <mxCell id="VYLA8M3CFdyxUnZ186hN-143" value="" style="shape=tableRow;horizontal=0;startSize=0;swimlaneHead=0;swimlaneBody=0;strokeColor=inherit;top=0;left=0;bottom=0;right=0;collapsible=0;dropTarget=0;fillColor=none;points=[[0,0.5],[1,0.5]];portConstraint=eastwest;" vertex="1" parent="VYLA8M3CFdyxUnZ186hN-129">
          <mxGeometry y="40" width="440" height="40" as="geometry" />
        </mxCell>
        <mxCell id="VYLA8M3CFdyxUnZ186hN-144" value="" style="shape=partialRectangle;html=1;whiteSpace=wrap;connectable=0;strokeColor=default;overflow=hidden;fillColor=#dae8fc;top=0;left=1;bottom=0;right=1;pointerEvents=1;strokeWidth=4;" vertex="1" parent="VYLA8M3CFdyxUnZ186hN-143">
          <mxGeometry width="109" height="40" as="geometry">
            <mxRectangle width="109" height="40" as="alternateBounds" />
          </mxGeometry>
        </mxCell>
        <mxCell id="VYLA8M3CFdyxUnZ186hN-145" value="" style="shape=partialRectangle;html=1;whiteSpace=wrap;connectable=0;strokeColor=default;overflow=hidden;fillColor=#dae8fc;top=0;left=1;bottom=0;right=1;pointerEvents=1;strokeWidth=4;" vertex="1" parent="VYLA8M3CFdyxUnZ186hN-143">
          <mxGeometry x="109" width="114" height="40" as="geometry">
            <mxRectangle width="114" height="40" as="alternateBounds" />
          </mxGeometry>
        </mxCell>
        <mxCell id="VYLA8M3CFdyxUnZ186hN-146" value="" style="shape=partialRectangle;html=1;whiteSpace=wrap;connectable=0;strokeColor=default;overflow=hidden;fillColor=#dae8fc;top=0;left=1;bottom=0;right=1;pointerEvents=1;strokeWidth=4;" vertex="1" parent="VYLA8M3CFdyxUnZ186hN-143">
          <mxGeometry x="223" width="108" height="40" as="geometry">
            <mxRectangle width="108" height="40" as="alternateBounds" />
          </mxGeometry>
        </mxCell>
        <mxCell id="VYLA8M3CFdyxUnZ186hN-147" value="" style="shape=partialRectangle;html=1;whiteSpace=wrap;connectable=0;strokeColor=default;overflow=hidden;fillColor=#dae8fc;top=0;left=1;bottom=0;right=1;pointerEvents=1;strokeWidth=4;" vertex="1" parent="VYLA8M3CFdyxUnZ186hN-143">
          <mxGeometry x="331" width="109" height="40" as="geometry">
            <mxRectangle width="109" height="40" as="alternateBounds" />
          </mxGeometry>
        </mxCell>
        <mxCell id="VYLA8M3CFdyxUnZ186hN-156" value="&lt;font face=&quot;Lucida Console&quot;&gt;&lt;span style=&quot;font-size: 20px; text-wrap-mode: nowrap;&quot;&gt;foo&lt;/span&gt;&lt;/font&gt;" style="text;whiteSpace=wrap;html=1;align=center;fillColor=#e1d5e7;strokeColor=#9673a6;" vertex="1" parent="1">
          <mxGeometry x="900" y="600" width="60" height="50" as="geometry" />
        </mxCell>
        <mxCell id="VYLA8M3CFdyxUnZ186hN-158" value="&lt;font face=&quot;Lucida Console&quot;&gt;&lt;span style=&quot;font-size: 20px; text-wrap-mode: nowrap;&quot;&gt;10&lt;/span&gt;&lt;/font&gt;&lt;div&gt;&lt;font face=&quot;Lucida Console&quot;&gt;&lt;span style=&quot;font-size: 20px; text-wrap-mode: nowrap;&quot;&gt;&lt;br&gt;&lt;/span&gt;&lt;/font&gt;&lt;/div&gt;" style="text;whiteSpace=wrap;html=1;align=center;" vertex="1" parent="1">
          <mxGeometry x="880" y="740" width="60" height="50" as="geometry" />
        </mxCell>
        <mxCell id="VYLA8M3CFdyxUnZ186hN-159" value="" style="shape=table;startSize=0;container=1;collapsible=0;childLayout=tableLayout;strokeWidth=1;perimeterSpacing=1;left=1;right=1;" vertex="1" parent="1">
          <mxGeometry x="420" y="90" width="720" height="80" as="geometry" />
        </mxCell>
        <mxCell id="VYLA8M3CFdyxUnZ186hN-160" value="" style="shape=tableRow;horizontal=0;startSize=0;swimlaneHead=0;swimlaneBody=0;strokeColor=inherit;top=0;left=0;bottom=0;right=0;collapsible=0;dropTarget=0;fillColor=none;points=[[0,0.5],[1,0.5]];portConstraint=eastwest;strokeWidth=1;perimeterSpacing=2;" vertex="1" parent="VYLA8M3CFdyxUnZ186hN-159">
          <mxGeometry width="720" height="40" as="geometry" />
        </mxCell>
        <mxCell id="VYLA8M3CFdyxUnZ186hN-161" value="&lt;font face=&quot;Lucida Console&quot; style=&quot;font-size: 20px;&quot;&gt;x&lt;/font&gt;" style="shape=partialRectangle;html=1;whiteSpace=wrap;connectable=0;strokeColor=inherit;overflow=hidden;fillColor=none;top=1;left=1;bottom=0;right=1;pointerEvents=1;rowspan=1;colspan=4;strokeWidth=4;perimeterSpacing=2;" vertex="1" parent="VYLA8M3CFdyxUnZ186hN-160">
          <mxGeometry width="240" height="40" as="geometry">
            <mxRectangle width="60" height="40" as="alternateBounds" />
          </mxGeometry>
        </mxCell>
        <mxCell id="VYLA8M3CFdyxUnZ186hN-162" value="" style="shape=partialRectangle;html=1;whiteSpace=wrap;connectable=0;strokeColor=inherit;overflow=hidden;fillColor=none;top=0;left=0;bottom=0;right=0;pointerEvents=1;" vertex="1" visible="0" parent="VYLA8M3CFdyxUnZ186hN-160">
          <mxGeometry x="60" width="60" height="40" as="geometry">
            <mxRectangle width="60" height="40" as="alternateBounds" />
          </mxGeometry>
        </mxCell>
        <mxCell id="VYLA8M3CFdyxUnZ186hN-163" value="" style="shape=partialRectangle;html=1;whiteSpace=wrap;connectable=0;strokeColor=inherit;overflow=hidden;fillColor=none;top=0;left=0;bottom=0;right=0;pointerEvents=1;" vertex="1" visible="0" parent="VYLA8M3CFdyxUnZ186hN-160">
          <mxGeometry x="120" width="60" height="40" as="geometry">
            <mxRectangle width="60" height="40" as="alternateBounds" />
          </mxGeometry>
        </mxCell>
        <mxCell id="VYLA8M3CFdyxUnZ186hN-164" value="" style="shape=partialRectangle;html=1;whiteSpace=wrap;connectable=0;strokeColor=inherit;overflow=hidden;fillColor=none;top=0;left=0;bottom=0;right=0;pointerEvents=1;" vertex="1" visible="0" parent="VYLA8M3CFdyxUnZ186hN-160">
          <mxGeometry x="180" width="60" height="40" as="geometry">
            <mxRectangle width="60" height="40" as="alternateBounds" />
          </mxGeometry>
        </mxCell>
        <mxCell id="VYLA8M3CFdyxUnZ186hN-165" value="&lt;font face=&quot;Lucida Console&quot; style=&quot;font-size: 20px;&quot;&gt;x_ptr&lt;/font&gt;" style="shape=partialRectangle;html=1;whiteSpace=wrap;connectable=0;strokeColor=inherit;overflow=hidden;fillColor=none;top=1;left=1;bottom=0;right=1;pointerEvents=1;rowspan=1;colspan=8;strokeWidth=4;perimeterSpacing=2;" vertex="1" parent="VYLA8M3CFdyxUnZ186hN-160">
          <mxGeometry x="240" width="480" height="40" as="geometry">
            <mxRectangle width="60" height="40" as="alternateBounds" />
          </mxGeometry>
        </mxCell>
        <mxCell id="VYLA8M3CFdyxUnZ186hN-166" value="" style="shape=partialRectangle;html=1;whiteSpace=wrap;connectable=0;strokeColor=inherit;overflow=hidden;fillColor=none;top=0;left=0;bottom=0;right=0;pointerEvents=1;" vertex="1" visible="0" parent="VYLA8M3CFdyxUnZ186hN-160">
          <mxGeometry x="300" width="60" height="40" as="geometry">
            <mxRectangle width="60" height="40" as="alternateBounds" />
          </mxGeometry>
        </mxCell>
        <mxCell id="VYLA8M3CFdyxUnZ186hN-167" value="" style="shape=partialRectangle;html=1;whiteSpace=wrap;connectable=0;strokeColor=inherit;overflow=hidden;fillColor=none;top=0;left=0;bottom=0;right=0;pointerEvents=1;" vertex="1" visible="0" parent="VYLA8M3CFdyxUnZ186hN-160">
          <mxGeometry x="360" width="60" height="40" as="geometry">
            <mxRectangle width="60" height="40" as="alternateBounds" />
          </mxGeometry>
        </mxCell>
        <mxCell id="VYLA8M3CFdyxUnZ186hN-168" value="" style="shape=partialRectangle;html=1;whiteSpace=wrap;connectable=0;strokeColor=inherit;overflow=hidden;fillColor=none;top=0;left=0;bottom=0;right=0;pointerEvents=1;" vertex="1" visible="0" parent="VYLA8M3CFdyxUnZ186hN-160">
          <mxGeometry x="420" width="60" height="40" as="geometry">
            <mxRectangle width="60" height="40" as="alternateBounds" />
          </mxGeometry>
        </mxCell>
        <mxCell id="VYLA8M3CFdyxUnZ186hN-169" value="" style="shape=partialRectangle;html=1;whiteSpace=wrap;connectable=0;strokeColor=inherit;overflow=hidden;fillColor=none;top=0;left=0;bottom=0;right=0;pointerEvents=1;" vertex="1" visible="0" parent="VYLA8M3CFdyxUnZ186hN-160">
          <mxGeometry x="480" width="60" height="40" as="geometry">
            <mxRectangle width="60" height="40" as="alternateBounds" />
          </mxGeometry>
        </mxCell>
        <mxCell id="VYLA8M3CFdyxUnZ186hN-170" value="" style="shape=partialRectangle;html=1;whiteSpace=wrap;connectable=0;strokeColor=inherit;overflow=hidden;fillColor=none;top=0;left=0;bottom=0;right=0;pointerEvents=1;" vertex="1" visible="0" parent="VYLA8M3CFdyxUnZ186hN-160">
          <mxGeometry x="540" width="60" height="40" as="geometry">
            <mxRectangle width="60" height="40" as="alternateBounds" />
          </mxGeometry>
        </mxCell>
        <mxCell id="VYLA8M3CFdyxUnZ186hN-171" value="" style="shape=partialRectangle;html=1;whiteSpace=wrap;connectable=0;strokeColor=inherit;overflow=hidden;fillColor=none;top=0;left=0;bottom=0;right=0;pointerEvents=1;" vertex="1" visible="0" parent="VYLA8M3CFdyxUnZ186hN-160">
          <mxGeometry x="600" width="51" height="40" as="geometry">
            <mxRectangle width="51" height="40" as="alternateBounds" />
          </mxGeometry>
        </mxCell>
        <mxCell id="VYLA8M3CFdyxUnZ186hN-172" value="" style="shape=partialRectangle;html=1;whiteSpace=wrap;connectable=0;strokeColor=inherit;overflow=hidden;fillColor=none;top=0;left=0;bottom=0;right=0;pointerEvents=1;" vertex="1" visible="0" parent="VYLA8M3CFdyxUnZ186hN-160">
          <mxGeometry x="651" width="69" height="40" as="geometry">
            <mxRectangle width="69" height="40" as="alternateBounds" />
          </mxGeometry>
        </mxCell>
        <mxCell id="VYLA8M3CFdyxUnZ186hN-173" value="" style="shape=tableRow;horizontal=0;startSize=0;swimlaneHead=0;swimlaneBody=0;strokeColor=inherit;top=0;left=0;bottom=0;right=0;collapsible=0;dropTarget=0;fillColor=none;points=[[0,0.5],[1,0.5]];portConstraint=eastwest;strokeWidth=1;perimeterSpacing=2;" vertex="1" parent="VYLA8M3CFdyxUnZ186hN-159">
          <mxGeometry y="40" width="720" height="40" as="geometry" />
        </mxCell>
        <mxCell id="VYLA8M3CFdyxUnZ186hN-174" value="" style="shape=partialRectangle;html=1;whiteSpace=wrap;connectable=0;strokeColor=default;overflow=hidden;fillColor=#dae8fc;top=0;left=1;bottom=0;right=1;pointerEvents=1;strokeWidth=4;perimeterSpacing=2;" vertex="1" parent="VYLA8M3CFdyxUnZ186hN-173">
          <mxGeometry width="60" height="40" as="geometry">
            <mxRectangle width="60" height="40" as="alternateBounds" />
          </mxGeometry>
        </mxCell>
        <mxCell id="VYLA8M3CFdyxUnZ186hN-175" value="" style="shape=partialRectangle;html=1;whiteSpace=wrap;connectable=0;strokeColor=default;overflow=hidden;fillColor=#dae8fc;top=0;left=1;bottom=0;right=1;pointerEvents=1;strokeWidth=4;perimeterSpacing=2;" vertex="1" parent="VYLA8M3CFdyxUnZ186hN-173">
          <mxGeometry x="60" width="60" height="40" as="geometry">
            <mxRectangle width="60" height="40" as="alternateBounds" />
          </mxGeometry>
        </mxCell>
        <mxCell id="VYLA8M3CFdyxUnZ186hN-176" value="" style="shape=partialRectangle;html=1;whiteSpace=wrap;connectable=0;strokeColor=default;overflow=hidden;fillColor=#dae8fc;top=0;left=1;bottom=0;right=1;pointerEvents=1;strokeWidth=4;perimeterSpacing=2;" vertex="1" parent="VYLA8M3CFdyxUnZ186hN-173">
          <mxGeometry x="120" width="60" height="40" as="geometry">
            <mxRectangle width="60" height="40" as="alternateBounds" />
          </mxGeometry>
        </mxCell>
        <mxCell id="VYLA8M3CFdyxUnZ186hN-177" value="" style="shape=partialRectangle;html=1;whiteSpace=wrap;connectable=0;strokeColor=default;overflow=hidden;fillColor=#dae8fc;top=0;left=1;bottom=0;right=1;pointerEvents=1;strokeWidth=4;perimeterSpacing=2;" vertex="1" parent="VYLA8M3CFdyxUnZ186hN-173">
          <mxGeometry x="180" width="60" height="40" as="geometry">
            <mxRectangle width="60" height="40" as="alternateBounds" />
          </mxGeometry>
        </mxCell>
        <mxCell id="VYLA8M3CFdyxUnZ186hN-178" value="" style="shape=partialRectangle;html=1;whiteSpace=wrap;connectable=0;strokeColor=default;overflow=hidden;fillColor=#d5e8d4;top=0;left=1;bottom=0;right=1;pointerEvents=1;strokeWidth=4;perimeterSpacing=2;" vertex="1" parent="VYLA8M3CFdyxUnZ186hN-173">
          <mxGeometry x="240" width="60" height="40" as="geometry">
            <mxRectangle width="60" height="40" as="alternateBounds" />
          </mxGeometry>
        </mxCell>
        <mxCell id="VYLA8M3CFdyxUnZ186hN-179" value="" style="shape=partialRectangle;html=1;whiteSpace=wrap;connectable=0;strokeColor=default;overflow=hidden;fillColor=#d5e8d4;top=0;left=1;bottom=0;right=1;pointerEvents=1;strokeWidth=4;perimeterSpacing=2;" vertex="1" parent="VYLA8M3CFdyxUnZ186hN-173">
          <mxGeometry x="300" width="60" height="40" as="geometry">
            <mxRectangle width="60" height="40" as="alternateBounds" />
          </mxGeometry>
        </mxCell>
        <mxCell id="VYLA8M3CFdyxUnZ186hN-180" value="" style="shape=partialRectangle;html=1;whiteSpace=wrap;connectable=0;strokeColor=default;overflow=hidden;fillColor=#d5e8d4;top=0;left=1;bottom=0;right=1;pointerEvents=1;strokeWidth=4;perimeterSpacing=2;" vertex="1" parent="VYLA8M3CFdyxUnZ186hN-173">
          <mxGeometry x="360" width="60" height="40" as="geometry">
            <mxRectangle width="60" height="40" as="alternateBounds" />
          </mxGeometry>
        </mxCell>
        <mxCell id="VYLA8M3CFdyxUnZ186hN-181" value="" style="shape=partialRectangle;html=1;whiteSpace=wrap;connectable=0;strokeColor=default;overflow=hidden;fillColor=#d5e8d4;top=0;left=1;bottom=0;right=1;pointerEvents=1;strokeWidth=4;perimeterSpacing=2;" vertex="1" parent="VYLA8M3CFdyxUnZ186hN-173">
          <mxGeometry x="420" width="60" height="40" as="geometry">
            <mxRectangle width="60" height="40" as="alternateBounds" />
          </mxGeometry>
        </mxCell>
        <mxCell id="VYLA8M3CFdyxUnZ186hN-182" value="" style="shape=partialRectangle;html=1;whiteSpace=wrap;connectable=0;strokeColor=default;overflow=hidden;fillColor=#d5e8d4;top=0;left=1;bottom=0;right=1;pointerEvents=1;strokeWidth=4;perimeterSpacing=2;" vertex="1" parent="VYLA8M3CFdyxUnZ186hN-173">
          <mxGeometry x="480" width="60" height="40" as="geometry">
            <mxRectangle width="60" height="40" as="alternateBounds" />
          </mxGeometry>
        </mxCell>
        <mxCell id="VYLA8M3CFdyxUnZ186hN-183" value="" style="shape=partialRectangle;html=1;whiteSpace=wrap;connectable=0;strokeColor=default;overflow=hidden;fillColor=#d5e8d4;top=0;left=1;bottom=0;right=1;pointerEvents=1;strokeWidth=4;perimeterSpacing=2;" vertex="1" parent="VYLA8M3CFdyxUnZ186hN-173">
          <mxGeometry x="540" width="60" height="40" as="geometry">
            <mxRectangle width="60" height="40" as="alternateBounds" />
          </mxGeometry>
        </mxCell>
        <mxCell id="VYLA8M3CFdyxUnZ186hN-184" value="" style="shape=partialRectangle;html=1;whiteSpace=wrap;connectable=0;strokeColor=default;overflow=hidden;fillColor=#d5e8d4;top=0;left=1;bottom=0;right=1;pointerEvents=1;strokeWidth=4;perimeterSpacing=2;" vertex="1" parent="VYLA8M3CFdyxUnZ186hN-173">
          <mxGeometry x="600" width="51" height="40" as="geometry">
            <mxRectangle width="51" height="40" as="alternateBounds" />
          </mxGeometry>
        </mxCell>
        <mxCell id="VYLA8M3CFdyxUnZ186hN-185" value="" style="shape=partialRectangle;html=1;whiteSpace=wrap;connectable=0;strokeColor=default;overflow=hidden;fillColor=#d5e8d4;top=0;left=1;bottom=0;right=1;pointerEvents=1;strokeWidth=4;perimeterSpacing=2;" vertex="1" parent="VYLA8M3CFdyxUnZ186hN-173">
          <mxGeometry x="651" width="69" height="40" as="geometry">
            <mxRectangle width="69" height="40" as="alternateBounds" />
          </mxGeometry>
        </mxCell>
        <mxCell id="VYLA8M3CFdyxUnZ186hN-186" value="&lt;font face=&quot;Lucida Console&quot;&gt;&lt;span style=&quot;font-size: 20px; text-wrap-mode: nowrap;&quot;&gt;bar&lt;/span&gt;&lt;/font&gt;" style="text;whiteSpace=wrap;html=1;align=center;fillColor=#e1d5e7;strokeColor=#9673a6;" vertex="1" parent="1">
          <mxGeometry x="700" y="20" width="60" height="50" as="geometry" />
        </mxCell>
        <mxCell id="VYLA8M3CFdyxUnZ186hN-187" value="" style="endArrow=classic;html=1;rounded=0;entryX=0.008;entryY=-0.05;entryDx=0;entryDy=0;entryPerimeter=0;strokeWidth=20;" edge="1" parent="1" target="VYLA8M3CFdyxUnZ186hN-72">
          <mxGeometry width="50" height="50" relative="1" as="geometry">
            <mxPoint x="890" y="171" as="sourcePoint" />
            <mxPoint x="420" y="80" as="targetPoint" />
            <Array as="points">
              <mxPoint x="890" y="240" />
              <mxPoint x="120" y="240" />
            </Array>
          </mxGeometry>
        </mxCell>
        <mxCell id="VYLA8M3CFdyxUnZ186hN-188" value="&lt;font face=&quot;Lucida Console&quot;&gt;&lt;span style=&quot;font-size: 20px; text-wrap-mode: nowrap;&quot;&gt;5&lt;/span&gt;&lt;/font&gt;" style="text;whiteSpace=wrap;html=1;align=center;" vertex="1" parent="1">
          <mxGeometry x="500" y="180" width="60" height="50" as="geometry" />
        </mxCell>
        <mxCell id="VYLA8M3CFdyxUnZ186hN-189" value="5FFE94" style="text;whiteSpace=wrap;fontFamily=Lucida Console;fontSize=20;" vertex="1" parent="1">
          <mxGeometry x="610" y="470" width="80" height="40" as="geometry" />
        </mxCell>
        <mxCell id="VYLA8M3CFdyxUnZ186hN-190" value="5FFE94" style="text;whiteSpace=wrap;fontFamily=Lucida Console;fontSize=20;" vertex="1" parent="1">
          <mxGeometry x="790" y="180" width="80" height="40" as="geometry" />
        </mxCell>
        <mxCell id="VYLA8M3CFdyxUnZ186hN-191" value="5FFE94" style="text;whiteSpace=wrap;fontFamily=Lucida Console;fontSize=20;labelBorderColor=none;fontColor=#FF3399;" vertex="1" parent="1">
          <mxGeometry x="10" y="420" width="80" height="40" as="geometry" />
        </mxCell>
        <mxCell id="VYLA8M3CFdyxUnZ186hN-192" value="FB8F1FF7F0" style="text;whiteSpace=wrap;fontFamily=Lucida Console;fontSize=20;labelBorderColor=none;fontColor=#FF3399;" vertex="1" parent="1">
          <mxGeometry x="540" y="700" width="130" height="40" as="geometry" />
        </mxCell>
        <mxCell id="VYLA8M3CFdyxUnZ186hN-193" value="FB8F1FF7DC" style="text;whiteSpace=wrap;fontFamily=Lucida Console;fontSize=20;labelBorderColor=none;fontColor=#FF3399;" vertex="1" parent="1">
          <mxGeometry x="280" y="130" width="130" height="40" as="geometry" />
        </mxCell>
      </root>
    </mxGraphModel>
  </diagram>
</mxfile>
